<?xml version="1.0" encoding="UTF-8" standalone="no"?>
<!DOCTYPE svg PUBLIC "-//W3C//DTD SVG 1.1//EN"
 "http://www.w3.org/Graphics/SVG/1.1/DTD/svg11.dtd">
<!-- Generated by graphviz version 9.0.0 (20230911.1827)
 -->
<!-- Title: BinaryTree Pages: 1 -->
<svg width="200pt" height="188pt"
 viewBox="0.00 0.00 200.00 188.00" xmlns="http://www.w3.org/2000/svg" xmlns:xlink="http://www.w3.org/1999/xlink">
<g id="graph0" class="graph" transform="scale(1 1) rotate(0) translate(4 184)">
<title>BinaryTree</title>
<!-- A -->
<g id="node1" class="node">
<title>A</title>
<ellipse fill="#c1b2ff" stroke="#c1b2ff" cx="126" cy="-162" rx="18" ry="18"/>
<text text-anchor="middle" x="126" y="-156.95" font-family="Times,serif" font-size="14.00">A</text>
</g>
<!-- B -->
<g id="node2" class="node">
<title>B</title>
<ellipse fill="#c1b2ff" stroke="#c1b2ff" cx="54" cy="-90" rx="18" ry="18"/>
<text text-anchor="middle" x="54" y="-84.95" font-family="Times,serif" font-size="14.00">B</text>
</g>
<!-- A&#45;&gt;B -->
<g id="edge1" class="edge">
<title>A&#45;&gt;B</title>
<path fill="none" stroke="black" d="M113.13,-149.13C102.48,-138.48 87.15,-123.15 74.77,-110.77"/>
<polygon fill="black" stroke="black" points="77.38,-108.43 67.83,-103.83 72.43,-113.38 77.38,-108.43"/>
</g>
<!-- C -->
<g id="node3" class="node">
<title>C</title>
<ellipse fill="#c1b2ff" stroke="#c1b2ff" cx="162" cy="-90" rx="18" ry="18"/>
<text text-anchor="middle" x="162" y="-84.95" font-family="Times,serif" font-size="14.00">C</text>
</g>
<!-- A&#45;&gt;C -->
<g id="edge2" class="edge">
<title>A&#45;&gt;C</title>
<path fill="none" stroke="black" d="M134.17,-145.66C138.5,-137.01 143.92,-126.17 148.82,-116.36"/>
<polygon fill="black" stroke="black" points="151.84,-118.14 153.19,-107.63 145.58,-115.01 151.84,-118.14"/>
</g>
<!-- D -->
<g id="node4" class="node">
<title>D</title>
<ellipse fill="#c1b2ff" stroke="#c1b2ff" cx="18" cy="-18" rx="18" ry="18"/>
<text text-anchor="middle" x="18" y="-12.95" font-family="Times,serif" font-size="14.00">D</text>
<text text-anchor="middle" x="132" y="-39.2" font-family="Times,serif" font-size="14.00">ac</text>
</g>
<!-- B&#45;&gt;D -->
<g id="edge3" class="edge">
<title>B&#45;&gt;D</title>
<path fill="none" stroke="black" d="M45.83,-73.66C41.5,-65.01 36.08,-54.17 31.18,-44.36"/>
<polygon fill="black" stroke="black" points="34.42,-43.01 26.81,-35.63 28.16,-46.14 34.42,-43.01"/>
</g>
<!-- E -->
<g id="node5" class="node">
<title>E</title>
<ellipse fill="#c1b2ff" stroke="#c1b2ff" cx="90" cy="-18" rx="18" ry="18"/>
<text text-anchor="middle" x="90" y="-12.95" font-family="Times,serif" font-size="14.00">E</text>
<text text-anchor="middle" x="188.62" y="-39.2" font-family="Times,serif" font-size="14.00">b</text>
</g>
<!-- B&#45;&gt;E -->
<g id="edge4" class="edge">
<title>B&#45;&gt;E</title>
<path fill="none" stroke="black" d="M62.17,-73.66C66.5,-65.01 71.92,-54.17 76.82,-44.36"/>
<polygon fill="black" stroke="black" points="79.84,-46.14 81.19,-35.63 73.58,-43.01 79.84,-46.14"/>
</g>
</g>
</svg>
