<?xml version="1.0" encoding="UTF-8" standalone="no"?>
<!DOCTYPE svg PUBLIC "-//W3C//DTD SVG 1.1//EN"
 "http://www.w3.org/Graphics/SVG/1.1/DTD/svg11.dtd">
<!-- Generated by graphviz version 9.0.0 (20230911.1827)
 -->
<!-- Title: BinaryTree Pages: 1 -->
<svg width="692pt" height="332pt"
 viewBox="0.00 0.00 692.00 332.00" xmlns="http://www.w3.org/2000/svg" xmlns:xlink="http://www.w3.org/1999/xlink">
<g id="graph0" class="graph" transform="scale(1 1) rotate(0) translate(4 328)">
<title>BinaryTree</title>
<!-- 8 -->
<g id="node1" class="node">
<title>8</title>
<ellipse fill="#c1b2ff" stroke="#c1b2ff" cx="414" cy="-306" rx="18" ry="18"/>
<text text-anchor="middle" x="414" y="-300.95" font-family="Times,serif" font-size="14.00">8</text>
</g>
<!-- 3 -->
<g id="node2" class="node">
<title>3</title>
<ellipse fill="#c1b2ff" stroke="#c1b2ff" cx="126" cy="-234" rx="18" ry="18"/>
<text text-anchor="middle" x="126" y="-228.95" font-family="Times,serif" font-size="14.00">3</text>
</g>
<!-- 8&#45;&gt;3 -->
<g id="edge1" class="edge">
<title>8&#45;&gt;3</title>
<path fill="none" stroke="black" d="M396.42,-301.6C348.32,-289.58 214.19,-256.05 154.86,-241.22"/>
<polygon fill="black" stroke="black" points="155.74,-237.83 145.19,-238.8 154.04,-244.62 155.74,-237.83"/>
</g>
<!-- 10 -->
<g id="node3" class="node">
<title>10</title>
<ellipse fill="#c1b2ff" stroke="#c1b2ff" cx="630" cy="-234" rx="18" ry="18"/>
<text text-anchor="middle" x="630" y="-228.95" font-family="Times,serif" font-size="14.00">10</text>
</g>
<!-- 8&#45;&gt;10 -->
<g id="edge2" class="edge">
<title>8&#45;&gt;10</title>
<path fill="none" stroke="black" d="M431.31,-300.23C468.52,-287.83 556.4,-258.53 601.78,-243.41"/>
<polygon fill="black" stroke="black" points="602.79,-246.76 611.17,-240.28 600.58,-240.12 602.79,-246.76"/>
</g>
<!-- 1 -->
<g id="node4" class="node">
<title>1</title>
<ellipse fill="#c1b2ff" stroke="#c1b2ff" cx="54" cy="-162" rx="18" ry="18"/>
<text text-anchor="middle" x="54" y="-156.95" font-family="Times,serif" font-size="14.00">1</text>
</g>
<!-- 3&#45;&gt;1 -->
<g id="edge3" class="edge">
<title>3&#45;&gt;1</title>
<path fill="none" stroke="black" d="M113.13,-221.13C102.48,-210.48 87.15,-195.15 74.77,-182.77"/>
<polygon fill="black" stroke="black" points="77.38,-180.43 67.83,-175.83 72.43,-185.38 77.38,-180.43"/>
</g>
<!-- 6 -->
<g id="node5" class="node">
<title>6</title>
<ellipse fill="#c1b2ff" stroke="#c1b2ff" cx="270" cy="-162" rx="18" ry="18"/>
<text text-anchor="middle" x="270" y="-156.95" font-family="Times,serif" font-size="14.00">6</text>
</g>
<!-- 3&#45;&gt;6 -->
<g id="edge4" class="edge">
<title>3&#45;&gt;6</title>
<path fill="none" stroke="black" d="M142.52,-225.74C167.26,-213.37 214.17,-189.91 243.67,-175.17"/>
<polygon fill="black" stroke="black" points="244.94,-178.44 252.32,-170.84 241.81,-172.18 244.94,-178.44"/>
</g>
<!-- 14 -->
<g id="node6" class="node">
<title>14</title>
<ellipse fill="#c1b2ff" stroke="#c1b2ff" cx="558" cy="-162" rx="18" ry="18"/>
<text text-anchor="middle" x="558" y="-156.95" font-family="Times,serif" font-size="14.00">14</text>
</g>
<!-- 10&#45;&gt;14 -->
<g id="edge5" class="edge">
<title>10&#45;&gt;14</title>
<path fill="none" stroke="black" d="M617.13,-221.13C606.48,-210.48 591.15,-195.15 578.77,-182.77"/>
<polygon fill="black" stroke="black" points="581.38,-180.43 571.83,-175.83 576.43,-185.38 581.38,-180.43"/>
</g>
<!-- K3 -->
<g id="node7" class="node">
<title>K3</title>
<polygon fill="#c1b2ff" stroke="#c1b2ff" points="684,-180 648,-180 648,-144 684,-144 684,-180"/>
<text text-anchor="middle" x="666" y="-156.95" font-family="Times,serif" font-size="14.00">NULL</text>
</g>
<!-- 10&#45;&gt;K3 -->
<g id="edge6" class="edge">
<title>10&#45;&gt;K3</title>
<path fill="none" stroke="black" d="M638.17,-217.66C642.21,-209.58 647.2,-199.6 651.84,-190.33"/>
<polygon fill="black" stroke="black" points="654.83,-192.16 656.17,-181.65 648.57,-189.03 654.83,-192.16"/>
</g>
<!-- K1 -->
<g id="node8" class="node">
<title>K1</title>
<polygon fill="#c1b2ff" stroke="#c1b2ff" points="36,-108 0,-108 0,-72 36,-72 36,-108"/>
<text text-anchor="middle" x="18" y="-84.95" font-family="Times,serif" font-size="14.00">NULL</text>
</g>
<!-- 1&#45;&gt;K1 -->
<g id="edge7" class="edge">
<title>1&#45;&gt;K1</title>
<path fill="none" stroke="black" d="M45.83,-145.66C41.79,-137.58 36.8,-127.6 32.16,-118.33"/>
<polygon fill="black" stroke="black" points="35.43,-117.03 27.83,-109.65 29.17,-120.16 35.43,-117.03"/>
</g>
<!-- K2 -->
<g id="node9" class="node">
<title>K2</title>
<polygon fill="#c1b2ff" stroke="#c1b2ff" points="108,-108 72,-108 72,-72 108,-72 108,-108"/>
<text text-anchor="middle" x="90" y="-84.95" font-family="Times,serif" font-size="14.00">NULL</text>
</g>
<!-- 1&#45;&gt;K2 -->
<g id="edge8" class="edge">
<title>1&#45;&gt;K2</title>
<path fill="none" stroke="black" d="M62.17,-145.66C66.21,-137.58 71.2,-127.6 75.84,-118.33"/>
<polygon fill="black" stroke="black" points="78.83,-120.16 80.17,-109.65 72.57,-117.03 78.83,-120.16"/>
</g>
<!-- 4 -->
<g id="node10" class="node">
<title>4</title>
<ellipse fill="#c1b2ff" stroke="#c1b2ff" cx="198" cy="-90" rx="18" ry="18"/>
<text text-anchor="middle" x="198" y="-84.95" font-family="Times,serif" font-size="14.00">4</text>
</g>
<!-- 6&#45;&gt;4 -->
<g id="edge9" class="edge">
<title>6&#45;&gt;4</title>
<path fill="none" stroke="black" d="M257.13,-149.13C246.48,-138.48 231.15,-123.15 218.77,-110.77"/>
<polygon fill="black" stroke="black" points="221.38,-108.43 211.83,-103.83 216.43,-113.38 221.38,-108.43"/>
</g>
<!-- 7 -->
<g id="node11" class="node">
<title>7</title>
<ellipse fill="#c1b2ff" stroke="#c1b2ff" cx="342" cy="-90" rx="18" ry="18"/>
<text text-anchor="middle" x="342" y="-84.95" font-family="Times,serif" font-size="14.00">7</text>
</g>
<!-- 6&#45;&gt;7 -->
<g id="edge10" class="edge">
<title>6&#45;&gt;7</title>
<path fill="none" stroke="black" d="M282.87,-149.13C293.52,-138.48 308.85,-123.15 321.23,-110.77"/>
<polygon fill="black" stroke="black" points="323.57,-113.38 328.17,-103.83 318.62,-108.43 323.57,-113.38"/>
</g>
<!-- 13 -->
<g id="node12" class="node">
<title>13</title>
<ellipse fill="#c1b2ff" stroke="#c1b2ff" cx="486" cy="-90" rx="18" ry="18"/>
<text text-anchor="middle" x="486" y="-84.95" font-family="Times,serif" font-size="14.00">13</text>
</g>
<!-- 14&#45;&gt;13 -->
<g id="edge11" class="edge">
<title>14&#45;&gt;13</title>
<path fill="none" stroke="black" d="M545.13,-149.13C534.48,-138.48 519.15,-123.15 506.77,-110.77"/>
<polygon fill="black" stroke="black" points="509.38,-108.43 499.83,-103.83 504.43,-113.38 509.38,-108.43"/>
</g>
<!-- K10 -->
<g id="node13" class="node">
<title>K10</title>
<polygon fill="#c1b2ff" stroke="#c1b2ff" points="612,-108 576,-108 576,-72 612,-72 612,-108"/>
<text text-anchor="middle" x="594" y="-84.95" font-family="Times,serif" font-size="14.00">NULL</text>
</g>
<!-- 14&#45;&gt;K10 -->
<g id="edge12" class="edge">
<title>14&#45;&gt;K10</title>
<path fill="none" stroke="black" d="M566.17,-145.66C570.21,-137.58 575.2,-127.6 579.84,-118.33"/>
<polygon fill="black" stroke="black" points="582.83,-120.16 584.17,-109.65 576.57,-117.03 582.83,-120.16"/>
</g>
<!-- K4 -->
<g id="node14" class="node">
<title>K4</title>
<polygon fill="#c1b2ff" stroke="#c1b2ff" points="180,-36 144,-36 144,0 180,0 180,-36"/>
<text text-anchor="middle" x="162" y="-12.95" font-family="Times,serif" font-size="14.00">NULL</text>
</g>
<!-- 4&#45;&gt;K4 -->
<g id="edge13" class="edge">
<title>4&#45;&gt;K4</title>
<path fill="none" stroke="black" d="M189.83,-73.66C185.79,-65.58 180.8,-55.6 176.16,-46.33"/>
<polygon fill="black" stroke="black" points="179.43,-45.03 171.83,-37.65 173.17,-48.16 179.43,-45.03"/>
</g>
<!-- K5 -->
<g id="node15" class="node">
<title>K5</title>
<polygon fill="#c1b2ff" stroke="#c1b2ff" points="252,-36 216,-36 216,0 252,0 252,-36"/>
<text text-anchor="middle" x="234" y="-12.95" font-family="Times,serif" font-size="14.00">NULL</text>
</g>
<!-- 4&#45;&gt;K5 -->
<g id="edge14" class="edge">
<title>4&#45;&gt;K5</title>
<path fill="none" stroke="black" d="M206.17,-73.66C210.21,-65.58 215.2,-55.6 219.84,-46.33"/>
<polygon fill="black" stroke="black" points="222.83,-48.16 224.17,-37.65 216.57,-45.03 222.83,-48.16"/>
</g>
<!-- K6 -->
<g id="node16" class="node">
<title>K6</title>
<polygon fill="#c1b2ff" stroke="#c1b2ff" points="324,-36 288,-36 288,0 324,0 324,-36"/>
<text text-anchor="middle" x="306" y="-12.95" font-family="Times,serif" font-size="14.00">NULL</text>
</g>
<!-- 7&#45;&gt;K6 -->
<g id="edge15" class="edge">
<title>7&#45;&gt;K6</title>
<path fill="none" stroke="black" d="M333.83,-73.66C329.79,-65.58 324.8,-55.6 320.16,-46.33"/>
<polygon fill="black" stroke="black" points="323.43,-45.03 315.83,-37.65 317.17,-48.16 323.43,-45.03"/>
</g>
<!-- K7 -->
<g id="node17" class="node">
<title>K7</title>
<polygon fill="#c1b2ff" stroke="#c1b2ff" points="396,-36 360,-36 360,0 396,0 396,-36"/>
<text text-anchor="middle" x="378" y="-12.95" font-family="Times,serif" font-size="14.00">NULL</text>
</g>
<!-- 7&#45;&gt;K7 -->
<g id="edge16" class="edge">
<title>7&#45;&gt;K7</title>
<path fill="none" stroke="black" d="M350.17,-73.66C354.21,-65.58 359.2,-55.6 363.84,-46.33"/>
<polygon fill="black" stroke="black" points="366.83,-48.16 368.17,-37.65 360.57,-45.03 366.83,-48.16"/>
</g>
<!-- K8 -->
<g id="node18" class="node">
<title>K8</title>
<polygon fill="#c1b2ff" stroke="#c1b2ff" points="468,-36 432,-36 432,0 468,0 468,-36"/>
<text text-anchor="middle" x="450" y="-12.95" font-family="Times,serif" font-size="14.00">NULL</text>
</g>
<!-- 13&#45;&gt;K8 -->
<g id="edge17" class="edge">
<title>13&#45;&gt;K8</title>
<path fill="none" stroke="black" d="M477.83,-73.66C473.79,-65.58 468.8,-55.6 464.16,-46.33"/>
<polygon fill="black" stroke="black" points="467.43,-45.03 459.83,-37.65 461.17,-48.16 467.43,-45.03"/>
</g>
<!-- K9 -->
<g id="node19" class="node">
<title>K9</title>
<polygon fill="#c1b2ff" stroke="#c1b2ff" points="540,-36 504,-36 504,0 540,0 540,-36"/>
<text text-anchor="middle" x="522" y="-12.95" font-family="Times,serif" font-size="14.00">NULL</text>
</g>
<!-- 13&#45;&gt;K9 -->
<g id="edge18" class="edge">
<title>13&#45;&gt;K9</title>
<path fill="none" stroke="black" d="M494.17,-73.66C498.21,-65.58 503.2,-55.6 507.84,-46.33"/>
<polygon fill="black" stroke="black" points="510.83,-48.16 512.17,-37.65 504.57,-45.03 510.83,-48.16"/>
</g>
</g>
</svg>
